<svg id="google-plus" xmlns="http://www.w3.org/2000/svg" width="28.009" height="17.506" viewBox="0 0 28.009 17.506">
  <g id="Group_2107" data-name="Group 2107" transform="translate(19.257 3.501)">
    <g id="Group_2106" data-name="Group 2106">
      <path id="Path_3731" data-name="Path 3731" d="M357.252,163.5V160H355.5v3.5H352v1.751h3.5v3.5h1.751v-3.5h3.5V163.5Z" transform="translate(-352 -160)" fill="#fff"/>
    </g>
  </g>
  <g id="Group_2109" data-name="Group 2109" transform="translate(0 0)">
    <g id="Group_2108" data-name="Group 2108" transform="translate(0 0)">
      <path id="Path_3732" data-name="Path 3732" d="M8.753,103v3.5h4.952a5.252,5.252,0,1,1-4.952-7,5.174,5.174,0,0,1,3.4,1.267l2.3-2.64A8.674,8.674,0,0,0,8.753,96a8.753,8.753,0,1,0,8.753,8.753V103Z" transform="translate(0 -96)" fill="#fff"/>
    </g>
  </g>
</svg>
