<svg id="instagram" xmlns="http://www.w3.org/2000/svg" width="17.506" height="17.506" viewBox="0 0 17.506 17.506">
  <path id="Path_3733" data-name="Path 3733" d="M10.338,5.838a4.492,4.492,0,1,0,4.492,4.492,4.491,4.491,0,0,0-4.492-4.492Zm0,7.407a2.915,2.915,0,1,1,2.915-2.915A2.915,2.915,0,0,1,10.338,13.245Z" transform="translate(-1.582 -1.58)" fill="#fff"/>
  <path id="Path_3734" data-name="Path 3734" d="M12.362.056c-1.611-.075-5.6-.071-7.212,0A5.231,5.231,0,0,0,1.477,1.471C-.206,3.155.009,5.423.009,8.75c0,3.4-.19,5.621,1.468,7.279C3.167,17.718,5.468,17.5,8.756,17.5c3.373,0,4.537,0,5.73-.46,1.621-.629,2.845-2.079,2.965-4.682.076-1.611.071-5.6,0-7.212C17.306,2.071,15.657.207,12.362.056Zm2.549,14.86c-1.1,1.1-2.635,1.005-6.177,1.005-3.647,0-5.11.054-6.177-1.016-1.229-1.223-1.007-3.188-1.007-6.166,0-4.03-.414-6.932,3.631-7.139.929-.033,1.2-.044,3.542-.044l.033.022c3.887,0,6.937-.407,7.12,3.637.042.923.051,1.2.051,3.535C15.927,12.354,16,13.825,14.911,14.915Z" transform="translate(0 -0.001)" fill="#fff"/>
  <circle id="Ellipse_3" data-name="Ellipse 3" cx="1.05" cy="1.05" r="1.05" transform="translate(12.376 3.031)" fill="#fff"/>
</svg>
