<svg id="twitter" xmlns="http://www.w3.org/2000/svg" width="21.546" height="17.506" viewBox="0 0 21.546 17.506">
  <g id="Group_2110" data-name="Group 2110" transform="translate(0 0)">
    <path id="Path_3735" data-name="Path 3735" d="M21.546,50.072a9.209,9.209,0,0,1-2.545.7,4.392,4.392,0,0,0,1.943-2.441,8.827,8.827,0,0,1-2.8,1.069,4.417,4.417,0,0,0-7.641,3.02,4.548,4.548,0,0,0,.1,1.007,12.5,12.5,0,0,1-9.1-4.62,4.418,4.418,0,0,0,1.357,5.9,4.362,4.362,0,0,1-2-.544v.048A4.437,4.437,0,0,0,4.4,58.553a4.408,4.408,0,0,1-1.158.145,3.906,3.906,0,0,1-.836-.075A4.459,4.459,0,0,0,6.534,61.7a8.875,8.875,0,0,1-5.477,1.884A8.271,8.271,0,0,1,0,63.524a12.435,12.435,0,0,0,6.776,1.982A12.485,12.485,0,0,0,19.348,52.937c0-.2-.007-.384-.016-.571A8.812,8.812,0,0,0,21.546,50.072Z" transform="translate(0 -48)" fill="#fff"/>
  </g>
</svg>
